<?xml version="1.0" encoding="UTF-8" ?>
<!DOCTYPE svg PUBLIC "-//W3C//DTD SVG 1.1//EN" "http://www.w3.org/Graphics/SVG/1.1/DTD/svg11.dtd">
<svg width="209pt" height="220pt" viewBox="0 0 209 220" version="1.1" xmlns="http://www.w3.org/2000/svg">
<g id="#00c853ff">
<path fill="#00c853" opacity="1.00" d=" M 12.50 0.00 L 142.49 0.00 C 146.85 0.61 150.97 3.03 153.18 6.90 C 155.11 9.89 155.20 13.57 155.22 17.01 C 155.15 29.05 155.20 41.09 155.19 53.12 C 168.49 53.17 181.80 53.05 195.10 53.16 C 202.06 53.07 208.13 58.81 209.00 65.62 L 209.00 206.55 C 208.28 213.46 202.11 219.35 195.07 219.21 C 180.39 219.30 165.71 219.25 151.03 219.22 C 147.87 219.00 144.75 219.36 141.67 220.00 L 12.62 220.00 C 6.15 219.29 0.80 213.92 0.00 207.48 L 0.00 12.67 C 0.70 6.19 6.03 0.80 12.50 0.00 M 8.13 13.01 C 7.74 16.27 7.98 19.55 7.95 22.81 C 54.36 22.81 100.77 22.81 147.17 22.81 C 147.15 19.52 147.39 16.21 146.99 12.93 C 146.49 9.73 143.19 7.69 140.09 8.00 C 98.38 8.01 56.68 7.99 14.97 8.01 C 11.86 7.69 8.59 9.83 8.13 13.01 M 7.94 30.82 C 7.94 82.90 7.94 134.98 7.94 187.06 C 47.98 187.06 88.02 187.06 128.06 187.06 C 128.06 147.37 128.07 107.68 128.05 67.99 C 127.74 62.33 131.12 56.70 136.32 54.41 C 139.70 52.77 143.54 53.15 147.18 53.11 C 147.19 45.68 147.19 38.25 147.18 30.82 C 100.77 30.81 54.36 30.81 7.94 30.82 M 137.48 63.40 C 135.42 65.84 136.14 69.26 135.97 72.19 C 157.68 72.18 179.38 72.19 201.08 72.18 C 200.94 69.08 201.69 65.30 199.16 62.94 C 197.60 61.26 195.20 61.10 193.07 61.11 C 176.36 61.13 159.66 61.14 142.96 61.13 C 140.92 61.11 138.77 61.74 137.48 63.40 M 136.00 80.25 C 136.00 115.83 136.00 151.42 136.00 187.00 C 157.69 187.06 179.37 187.07 201.06 187.06 C 201.06 151.46 201.06 115.85 201.06 80.25 C 179.37 80.25 157.69 80.26 136.00 80.25 M 7.94 195.06 C 8.04 199.04 7.69 203.04 8.13 207.01 C 8.62 210.19 11.87 212.30 14.98 211.99 C 53.22 212.02 91.46 211.97 129.70 212.02 C 127.18 206.71 128.28 200.72 128.06 195.06 C 88.02 195.06 47.98 195.06 7.94 195.06 M 136.00 195.12 C 136.07 198.75 135.79 202.39 136.16 206.02 C 136.52 209.28 139.82 211.54 143.00 211.23 C 160.01 211.26 177.02 211.26 194.03 211.23 C 196.96 211.48 199.98 209.70 200.76 206.80 C 201.38 202.92 200.95 198.97 201.06 195.06 C 179.37 195.05 157.69 195.07 136.00 195.12 Z" />
<path fill="#00c853" opacity="1.00" d=" M 26.15 40.21 C 28.60 39.33 30.44 41.49 31.98 43.01 C 37.37 48.64 43.08 53.96 48.42 59.62 C 50.64 61.51 49.73 65.53 46.94 66.31 C 44.59 67.24 42.74 65.24 41.23 63.76 C 35.65 57.95 29.73 52.45 24.27 46.53 C 22.30 44.57 23.54 40.88 26.15 40.21 Z" />
<path fill="#00c853" opacity="1.00" d=" M 25.34 55.47 C 27.33 54.18 29.65 55.39 31.03 56.97 C 41.42 67.54 52.03 77.91 62.34 88.55 C 65.13 91.31 61.71 96.36 58.10 94.94 C 55.75 93.72 54.14 91.50 52.26 89.69 C 43.12 80.50 33.93 71.35 24.82 62.13 C 22.67 60.44 22.87 56.75 25.34 55.47 Z" />
<path fill="#00c853" opacity="1.00" d=" M 148.11 91.17 C 150.57 89.80 152.82 91.87 154.39 93.56 C 159.10 98.53 164.25 103.09 168.73 108.26 C 171.18 111.81 165.85 116.33 162.78 113.28 C 157.51 108.20 152.35 102.99 147.23 97.76 C 145.12 95.99 145.61 92.31 148.11 91.17 Z" />
<path fill="#00c853" opacity="1.00" d=" M 148.28 107.35 C 150.36 106.28 152.43 107.74 153.80 109.23 C 162.23 117.79 170.77 126.24 179.21 134.79 C 181.66 136.69 180.95 141.00 177.90 141.82 C 175.71 142.63 173.92 140.89 172.52 139.47 C 164.08 130.91 155.51 122.47 147.11 113.87 C 145.05 112.06 145.74 108.34 148.28 107.35 Z" />
<path fill="#00c853" opacity="1.00" d=" M 75.17 198.16 C 79.00 196.19 83.93 199.76 83.29 204.01 C 83.04 208.36 77.30 210.80 74.01 207.93 C 70.67 205.51 71.35 199.73 75.17 198.16 Z" />
<path fill="#00c853" opacity="1.00" d=" M 166.33 198.49 C 169.76 196.17 174.92 198.83 175.06 202.95 C 175.63 207.36 170.23 210.81 166.47 208.41 C 162.75 206.47 162.67 200.54 166.33 198.49 Z" />
</g>
</svg>
