<?xml version="1.0" encoding="utf-8"?>
<!-- Generator: Adobe Illustrator 19.0.0, SVG Export Plug-In . SVG Version: 6.00 Build 0)  -->
<svg version="1.1" id="Layer_1" xmlns="http://www.w3.org/2000/svg" xmlns:xlink="http://www.w3.org/1999/xlink" x="0px" y="0px"
	 viewBox="0 0 59.7 59.7" style="enable-background:new 0 0 59.7 59.7;" xml:space="preserve">
<style type="text/css">
	.st0{fill:none;stroke:#10133D;stroke-width:2;stroke-linecap:round;stroke-linejoin:round;stroke-miterlimit:10;}
</style>
<g>
	<polyline class="st0" points="7.9,45.3 18.9,30.8 29.3,42.3 34.9,35.8 46.6,45.6 	"/>
	<circle class="st0" cx="34.9" cy="21" r="4.5"/>
	<path class="st0" d="M48.1,58.7H6.4c-3,0-5.4-2.4-5.4-5.4V11.6c0-3,2.4-5.4,5.4-5.4h41.6c3,0,5.4,2.4,5.4,5.4v41.6
		C53.5,56.2,51,58.7,48.1,58.7z"/>
	<path class="st0" d="M6.2,5.4C6.2,3,8.2,1,10.6,1h43.6c2.5,0,4.4,2,4.4,4.4V49c0,2.5-2,4.4-4.4,4.4"/>
</g>
</svg>
