<?xml version="1.0" encoding="UTF-8" ?>
<!DOCTYPE svg PUBLIC "-//W3C//DTD SVG 1.1//EN" "http://www.w3.org/Graphics/SVG/1.1/DTD/svg11.dtd">
<svg width="211pt" height="235pt" viewBox="0 0 211 235" version="1.1" xmlns="http://www.w3.org/2000/svg">
<g id="#ffffffff">
<path fill="#ffffff" opacity="1.00" d=" M 133.00 0.00 L 135.11 0.00 C 136.13 0.54 137.10 1.16 137.99 1.90 C 155.55 17.38 173.15 32.84 190.73 48.32 C 193.47 50.68 195.98 53.56 199.59 54.58 C 205.92 56.75 210.49 62.91 211.00 69.55 L 211.00 218.39 C 210.50 227.11 202.91 234.45 194.26 235.00 L 16.90 235.00 C 8.32 234.55 0.78 227.40 0.00 218.82 L 0.00 69.62 C 0.42 63.91 3.80 58.57 8.77 55.75 C 11.59 53.93 15.28 54.08 17.91 51.92 C 34.74 38.72 51.61 25.57 68.45 12.38 C 70.36 10.92 72.13 9.22 74.31 8.18 C 76.16 7.47 77.95 8.57 79.35 9.69 C 86.59 15.38 93.84 21.06 101.09 26.73 C 109.31 19.75 117.50 12.73 125.71 5.74 C 128.07 3.74 130.29 1.54 133.00 0.00 M 108.00 32.14 C 116.84 39.24 126.05 45.90 134.64 53.29 C 151.00 53.39 167.35 53.19 183.71 53.39 C 166.98 39.11 150.64 24.37 134.06 9.90 C 125.37 17.31 116.69 24.73 108.00 32.14 M 35.24 49.25 C 33.39 50.74 31.53 52.24 29.46 53.41 C 60.18 53.25 90.92 53.24 121.65 53.41 C 106.02 41.89 91.00 29.54 75.62 17.68 C 62.15 28.20 48.70 38.73 35.24 49.25 M 14.39 62.51 C 10.98 63.81 8.53 67.32 8.64 71.00 C 8.62 119.69 8.61 168.38 8.64 217.07 C 8.45 222.51 13.65 226.98 18.96 226.56 C 76.92 226.54 134.89 226.60 192.86 226.53 C 197.91 226.62 202.53 222.14 202.36 217.04 C 202.38 168.36 202.38 119.68 202.36 71.01 C 202.60 65.54 197.25 61.25 191.97 61.84 C 135.64 61.79 79.31 61.83 22.98 61.82 C 20.12 61.94 17.15 61.61 14.39 62.51 Z" />
<path fill="#ffffff" opacity="1.00" d=" M 66.18 87.09 C 68.39 86.49 70.70 86.63 72.96 86.61 C 95.97 86.66 118.97 86.58 141.97 86.65 C 147.55 86.66 152.79 90.74 154.21 96.12 C 156.77 104.26 149.44 113.06 141.03 112.44 C 117.37 112.44 93.70 112.45 70.04 112.43 C 63.53 112.70 57.32 107.49 56.72 100.96 C 55.88 94.81 60.21 88.62 66.18 87.09 M 69.12 95.18 C 66.52 95.43 64.59 98.38 65.51 100.86 C 66.09 102.75 68.04 104.01 69.99 103.91 C 93.70 103.96 117.41 103.94 141.12 103.92 C 144.09 104.25 146.83 101.13 145.81 98.25 C 145.13 95.76 142.37 94.81 140.03 95.06 C 116.39 95.15 92.75 94.90 69.12 95.18 Z" />
<path fill="#ffffff" opacity="1.00" d=" M 72.47 177.78 C 78.81 175.31 86.35 181.21 85.13 187.99 C 84.41 195.30 74.51 198.78 69.24 193.77 C 63.73 189.43 65.73 179.68 72.47 177.78 Z" />
<path fill="#ffffff" opacity="1.00" d=" M 102.48 177.82 C 109.20 175.06 117.18 181.91 115.04 188.99 C 113.54 196.11 103.44 198.59 98.69 193.15 C 93.95 188.57 96.18 179.70 102.48 177.82 Z" />
<path fill="#ffffff" opacity="1.00" d=" M 133.42 177.68 C 140.09 175.31 147.61 182.06 145.58 188.94 C 144.16 195.90 134.43 198.54 129.55 193.47 C 124.29 188.90 126.69 179.34 133.42 177.68 Z" />
</g>
</svg>
